# xmcd CD database file
#
# Track frame offsets:
#	150
#	12608
#	35119
#	48202
#	69316
#	80751
#	94729
#	108049
#	118095
#	132616
#	143699
#	159276
#	173174
#	187766
#	203484
#	226712
#	244924
#
# Disc length: 3424 seconds
#
# Revision: 0
# Processed by: cddbd v1.5.2PL0 Copyright (c) Steve Scherf et al.
# Submitted via: CDex 1.51
#
DISCID=db0d5e11
DTITLE=Various Artist - Mississippi Bluesmen [CD1]
DYEAR=2013
DGENRE=Blues
TTITLE0=Howlin' Wolf - Spoonful
TTITLE1=B.B. King - The Thrill Is Gone (Live)
TTITLE2=Muddy Waters - I'm Your Hoochie Coochie Man
TTITLE3=Son House - Preachin' The Blues
TTITLE4=Robert Johnson - Crossroad Blues
TTITLE5=Elmore James - It Hurts Me Too
TTITLE6=Arthur "Big Boy" Crudup - Thats All Right (Mama)
TTITLE7=John Lee Hooker - Dimples
TTITLE8=Charley Patton - A Spoonful Blues
TTITLE9=Jimmy Reed - Baby, What Do You Wan't Me To Do
TTITLE10=Mississippi John Hurt - Frankie
TTITLE11=Bukka White - Shake 'Em On Down
TTITLE12=Big Joe Williams - Stepfather Blues
TTITLE13=Eddie Boyd - 24 Hours
TTITLE14=Otis Spann - The Hard Way
TTITLE15=James Cotton - V-8 Ford Blues
TTITLE16=Otis Rush - All Your Love
EXTD=YEAR: 2013
EXTT0=
EXTT1=
EXTT2=
EXTT3=
EXTT4=
EXTT5=
EXTT6=
EXTT7=
EXTT8=
EXTT9=
EXTT10=
EXTT11=
EXTT12=
EXTT13=
EXTT14=
EXTT15=
EXTT16=
PLAYORDER=
